<svg width="25" height="24" viewBox="0 0 25 24" fill="none" xmlns="http://www.w3.org/2000/svg">
<rect x="0.333374" width="24" height="24" rx="12" fill="#3858E6"/>
<path fill-rule="evenodd" clip-rule="evenodd" d="M12.3334 17C15.0948 17 17.3334 14.7614 17.3334 12C17.3334 9.23858 15.0948 7 12.3334 7C9.57195 7 7.33337 9.23858 7.33337 12C7.33337 14.7614 9.57195 17 12.3334 17ZM10.3334 10.25V11.75H11.3334V10.25H10.3334ZM13.3334 11.75V10.25H14.3334V11.75H13.3334ZM10.9424 12.8389C11.0153 13.0195 11.1251 13.1892 11.2727 13.3368C11.8585 13.9226 12.8082 13.9226 13.394 13.3368C13.5417 13.1892 13.6514 13.0195 13.7244 12.8389L14.6516 13.2134C14.5293 13.5163 14.3454 13.7996 14.1011 14.0439C13.1248 15.0203 11.5419 15.0203 10.5656 14.0439C10.3213 13.7996 10.1375 13.5163 10.0151 13.2134L10.9424 12.8389Z" fill="white"/>
</svg>
